<mxfile host="app.diagrams.net" modified="2023-05-25T16:18:46.106Z" agent="Mozilla/5.0 (Macintosh; Intel Mac OS X 10_15_7) AppleWebKit/537.36 (KHTML, like Gecko) Chrome/112.0.0.0 Safari/537.36" etag="F-lo7w5q9LMJp4Akrs_B" version="21.2.9" type="github">
  <diagram name="Page-1" id="peKFim6c7-G3USQglK8f">
    <mxGraphModel dx="954" dy="1675" grid="1" gridSize="10" guides="1" tooltips="1" connect="1" arrows="1" fold="1" page="1" pageScale="1" pageWidth="827" pageHeight="1169" math="0" shadow="0">
      <root>
        <mxCell id="0" />
        <mxCell id="1" parent="0" />
        <mxCell id="zlFY3Aq6qTcon-z1RUTu-1" value="" style="whiteSpace=wrap;html=1;aspect=fixed;fillColor=#E4DBE7;strokeColor=#9673a6;" parent="1" vertex="1">
          <mxGeometry x="170" y="-270" width="390" height="390" as="geometry" />
        </mxCell>
        <mxCell id="zlFY3Aq6qTcon-z1RUTu-2" value="&lt;h1&gt;&lt;font style=&quot;font-size: 22px;&quot; color=&quot;#ffffff&quot;&gt;Cat Party&lt;/font&gt;&lt;/h1&gt;&lt;div&gt;&lt;font color=&quot;#ffffff&quot;&gt;Mi gato es bonito, tu gato es encantador,&amp;nbsp;amamos a los gatos&lt;/font&gt;&lt;/div&gt;&lt;div&gt;&lt;font color=&quot;#ffffff&quot;&gt;&lt;br&gt;&lt;/font&gt;&lt;/div&gt;&lt;div&gt;&lt;font color=&quot;#ffffff&quot;&gt;Select a breed below to learn all about it!&lt;/font&gt;&lt;/div&gt;" style="text;html=1;strokeColor=none;fillColor=none;spacing=5;spacingTop=-20;whiteSpace=wrap;overflow=hidden;rounded=0;" parent="1" vertex="1">
          <mxGeometry x="180" y="-260" width="310" height="110" as="geometry" />
        </mxCell>
        <mxCell id="zlFY3Aq6qTcon-z1RUTu-3" value="" style="rounded=0;whiteSpace=wrap;html=1;fillColor=#A680B8;" parent="1" vertex="1">
          <mxGeometry x="200" y="-80" width="330" height="30" as="geometry" />
        </mxCell>
        <mxCell id="zlFY3Aq6qTcon-z1RUTu-4" value="&lt;font color=&quot;#ffffff&quot;&gt;Drop Down List Here&lt;/font&gt;" style="rounded=0;whiteSpace=wrap;html=1;fillColor=#A680B8;" parent="1" vertex="1">
          <mxGeometry x="230" y="-75" width="120" height="20" as="geometry" />
        </mxCell>
        <mxCell id="zlFY3Aq6qTcon-z1RUTu-5" value="&lt;font color=&quot;#ffffff&quot;&gt;Search!&lt;/font&gt;" style="rounded=0;whiteSpace=wrap;html=1;fillColor=#A680B8;" parent="1" vertex="1">
          <mxGeometry x="405" y="-75" width="120" height="20" as="geometry" />
        </mxCell>
        <mxCell id="zlFY3Aq6qTcon-z1RUTu-6" value="Image Displays here" style="whiteSpace=wrap;html=1;aspect=fixed;" parent="1" vertex="1">
          <mxGeometry x="335" y="-40" width="70" height="70" as="geometry" />
        </mxCell>
        <mxCell id="zlFY3Aq6qTcon-z1RUTu-7" value="Breed specific information underneath" style="rounded=1;whiteSpace=wrap;html=1;" parent="1" vertex="1">
          <mxGeometry x="300" y="40" width="140" height="60" as="geometry" />
        </mxCell>
        <mxCell id="zlFY3Aq6qTcon-z1RUTu-8" value="&lt;font color=&quot;#ffffff&quot;&gt;Breeds&lt;/font&gt;" style="rounded=1;whiteSpace=wrap;html=1;fillColor=#A680B8;" parent="1" vertex="1">
          <mxGeometry x="230" y="-140" width="270" height="60" as="geometry" />
        </mxCell>
        <mxCell id="zlFY3Aq6qTcon-z1RUTu-9" value="&lt;font color=&quot;#ffffff&quot;&gt;Vote&lt;/font&gt;" style="rounded=0;whiteSpace=wrap;html=1;fillColor=#A680B8;" parent="1" vertex="1">
          <mxGeometry x="230" y="-140" width="90" height="60" as="geometry" />
        </mxCell>
        <mxCell id="zlFY3Aq6qTcon-z1RUTu-10" value="&lt;font color=&quot;#ffffff&quot;&gt;Favourites&lt;/font&gt;" style="rounded=0;whiteSpace=wrap;html=1;fillColor=#A680B8;" parent="1" vertex="1">
          <mxGeometry x="410" y="-140" width="90" height="60" as="geometry" />
        </mxCell>
        <mxCell id="zlFY3Aq6qTcon-z1RUTu-12" value="User Selects Breeds option" style="ellipse;whiteSpace=wrap;html=1;" parent="1" vertex="1">
          <mxGeometry x="20" y="-260" width="120" height="80" as="geometry" />
        </mxCell>
        <mxCell id="OWhAUG12F3wdn81psAX4-1" value="" style="whiteSpace=wrap;html=1;aspect=fixed;fillColor=#e1d5e7;strokeColor=#9673a6;" vertex="1" parent="1">
          <mxGeometry x="110" y="260" width="540" height="540" as="geometry" />
        </mxCell>
        <mxCell id="OWhAUG12F3wdn81psAX4-2" value="&lt;h1&gt;&amp;nbsp; &amp;nbsp; &amp;nbsp; &amp;nbsp; &amp;nbsp; &amp;nbsp; &amp;nbsp;Cat Love&lt;/h1&gt;&lt;div&gt;&lt;span style=&quot;background-color: initial;&quot;&gt;&amp;nbsp; &amp;nbsp; Breed.&amp;nbsp; &amp;nbsp; &amp;nbsp; &amp;nbsp;Vote&amp;nbsp; &amp;nbsp; &amp;nbsp; &amp;nbsp; Favourites&amp;nbsp; &amp;nbsp; &amp;nbsp; &amp;nbsp;Cat&lt;/span&gt;&lt;br&gt;&lt;/div&gt;&lt;div&gt;&lt;div style=&quot;border-color: var(--border-color);&quot;&gt;&lt;br style=&quot;border-color: var(--border-color);&quot;&gt;&lt;/div&gt;&lt;/div&gt;&lt;div style=&quot;border-color: var(--border-color);&quot;&gt;Bit about cat love/URL link to Cat help site&amp;nbsp;&lt;/div&gt;&lt;div style=&quot;border-color: var(--border-color);&quot;&gt;&lt;br&gt;&lt;/div&gt;&lt;div style=&quot;border-color: var(--border-color);&quot;&gt;&lt;br&gt;&lt;/div&gt;" style="text;html=1;strokeColor=none;fillColor=none;spacing=5;spacingTop=-20;whiteSpace=wrap;overflow=hidden;rounded=0;" vertex="1" parent="1">
          <mxGeometry x="230" y="300" width="300" height="120" as="geometry" />
        </mxCell>
        <mxCell id="OWhAUG12F3wdn81psAX4-3" value="" style="rounded=1;whiteSpace=wrap;html=1;" vertex="1" parent="1">
          <mxGeometry x="240" y="420" width="120" height="20" as="geometry" />
        </mxCell>
        <mxCell id="OWhAUG12F3wdn81psAX4-4" value="Dropdown" style="text;html=1;strokeColor=none;fillColor=none;align=center;verticalAlign=middle;whiteSpace=wrap;rounded=0;" vertex="1" parent="1">
          <mxGeometry x="250" y="415" width="60" height="30" as="geometry" />
        </mxCell>
        <mxCell id="OWhAUG12F3wdn81psAX4-5" value="" style="rounded=1;whiteSpace=wrap;html=1;" vertex="1" parent="1">
          <mxGeometry x="360" y="422.5" width="50" height="15" as="geometry" />
        </mxCell>
        <mxCell id="OWhAUG12F3wdn81psAX4-6" value="Button" style="text;html=1;strokeColor=none;fillColor=none;align=center;verticalAlign=middle;whiteSpace=wrap;rounded=0;" vertex="1" parent="1">
          <mxGeometry x="355" y="415" width="60" height="30" as="geometry" />
        </mxCell>
        <mxCell id="OWhAUG12F3wdn81psAX4-7" value="" style="rounded=1;whiteSpace=wrap;html=1;" vertex="1" parent="1">
          <mxGeometry x="230" y="460" width="220" height="200" as="geometry" />
        </mxCell>
        <mxCell id="OWhAUG12F3wdn81psAX4-8" value="Display selected breed info from API" style="text;html=1;strokeColor=none;fillColor=none;align=center;verticalAlign=middle;whiteSpace=wrap;rounded=0;" vertex="1" parent="1">
          <mxGeometry x="295" y="500" width="60" height="30" as="geometry" />
        </mxCell>
        <mxCell id="OWhAUG12F3wdn81psAX4-9" value="" style="endArrow=classic;html=1;rounded=0;" edge="1" parent="1">
          <mxGeometry width="50" height="50" relative="1" as="geometry">
            <mxPoint x="190" y="410" as="sourcePoint" />
            <mxPoint x="240" y="360" as="targetPoint" />
          </mxGeometry>
        </mxCell>
        <mxCell id="OWhAUG12F3wdn81psAX4-10" value="Change in layout of page due to added features" style="text;html=1;strokeColor=none;fillColor=none;align=center;verticalAlign=middle;whiteSpace=wrap;rounded=0;" vertex="1" parent="1">
          <mxGeometry x="120" y="210" width="320" height="30" as="geometry" />
        </mxCell>
      </root>
    </mxGraphModel>
  </diagram>
</mxfile>
